<?xml version="1.0" encoding="UTF-8"?>
<svg width="109px" height="103px" viewBox="0 0 109 103" version="1.1" xmlns="http://www.w3.org/2000/svg" xmlns:xlink="http://www.w3.org/1999/xlink">
    <!-- Generator: Sketch 48.2 (47327) - http://www.bohemiancoding.com/sketch -->
    <title>Group 23</title>
    <desc>Created with Sketch.</desc>
    <defs>
        <circle id="path-1" cx="51.5" cy="51.5" r="51.5"></circle>
        <filter x="-14.3%" y="-12.3%" width="132.9%" height="127.2%" filterUnits="objectBoundingBox" id="filter-3">
            <feOffset dx="0" dy="2" in="SourceAlpha" result="shadowOffsetOuter1"></feOffset>
            <feGaussianBlur stdDeviation="3" in="shadowOffsetOuter1" result="shadowBlurOuter1"></feGaussianBlur>
            <feColorMatrix values="0 0 0 0 0.2   0 0 0 0 0.6   0 0 0 0 1  0 0 0 0.242102582 0" type="matrix" in="shadowBlurOuter1" result="shadowMatrixOuter1"></feColorMatrix>
            <feMerge>
                <feMergeNode in="shadowMatrixOuter1"></feMergeNode>
                <feMergeNode in="SourceGraphic"></feMergeNode>
            </feMerge>
        </filter>
        <linearGradient x1="78.7659145%" y1="0%" x2="25.9809567%" y2="100%" id="linearGradient-4">
            <stop stop-color="#A8EAFF" offset="0%"></stop>
            <stop stop-color="#4B9EFF" offset="100%"></stop>
        </linearGradient>
        <linearGradient x1="50%" y1="50%" x2="0%" y2="95.6684298%" id="linearGradient-5">
            <stop stop-color="#7BD5FE" offset="0%"></stop>
            <stop stop-color="#A6E1FF" offset="18.586783%"></stop>
            <stop stop-color="#B8E6FF" offset="39.5368163%"></stop>
            <stop stop-color="#C9EEFF" offset="100%"></stop>
        </linearGradient>
        <path d="M54,0 L69,15.531746 L58,15.531746 C55.790861,15.531746 54,13.740885 54,11.531746 L54,0 Z" id="path-6"></path>
        <filter x="-46.7%" y="-32.2%" width="193.3%" height="190.1%" filterUnits="objectBoundingBox" id="filter-7">
            <feOffset dx="0" dy="2" in="SourceAlpha" result="shadowOffsetOuter1"></feOffset>
            <feGaussianBlur stdDeviation="2" in="shadowOffsetOuter1" result="shadowBlurOuter1"></feGaussianBlur>
            <feColorMatrix values="0 0 0 0 0.00626519766   0 0 0 0 0.496627409   0 0 0 0 0.909943665  0 0 0 0.290477808 0" type="matrix" in="shadowBlurOuter1"></feColorMatrix>
        </filter>
        <linearGradient x1="55.5394022%" y1="0%" x2="55.5393994%" y2="100%" id="linearGradient-8">
            <stop stop-color="#93E8FF" offset="0%"></stop>
            <stop stop-color="#ACF4FF" offset="100%"></stop>
        </linearGradient>
        <path d="M8.53968254,0 L22.4365079,0 L22.4365079,23.3734757 C22.4365079,23.9257604 21.9887927,24.3734757 21.4365079,24.3734757 C21.199621,24.3734757 20.9704262,24.2893813 20.789753,24.1361735 L16.7816052,20.7373316 C16.0353572,20.1045259 14.9408333,20.1045259 14.1945853,20.7373316 L10.1864375,24.1361735 C9.7652111,24.4933664 9.13417758,24.441457 8.77698468,24.0202306 C8.62377687,23.8395575 8.53968254,23.6103626 8.53968254,23.3734757 L8.53968254,0 Z" id="path-9"></path>
        <filter x="-43.2%" y="-20.5%" width="200.7%" height="157.4%" filterUnits="objectBoundingBox" id="filter-10">
            <feOffset dx="1" dy="2" in="SourceAlpha" result="shadowOffsetOuter1"></feOffset>
            <feGaussianBlur stdDeviation="2" in="shadowOffsetOuter1" result="shadowBlurOuter1"></feGaussianBlur>
            <feColorMatrix values="0 0 0 0 0.115373705   0 0 0 0 0.360292342   0 0 0 0 0.702301233  0 0 0 0.198199728 0" type="matrix" in="shadowBlurOuter1"></feColorMatrix>
        </filter>
        <polygon id="path-11" points="33.5625 76.3333333 34.5 74 35.4375 76.3333333 37 77.3333333 35.4375 78.3333333 34.5 81 33.5625 78.3333333 32 77.3333333"></polygon>
        <filter x="-80.0%" y="-28.6%" width="260.0%" height="214.3%" filterUnits="objectBoundingBox" id="filter-12">
            <feOffset dx="0" dy="2" in="SourceAlpha" result="shadowOffsetOuter1"></feOffset>
            <feGaussianBlur stdDeviation="1" in="shadowOffsetOuter1" result="shadowBlurOuter1"></feGaussianBlur>
            <feColorMatrix values="0 0 0 0 0.402865216   0 0 0 0 0.644008076   0 0 0 0 0.885150935  0 0 0 1 0" type="matrix" in="shadowBlurOuter1"></feColorMatrix>
        </filter>
    </defs>
    <g id="转账首页-copy-3" stroke="none" stroke-width="1" fill="none" fill-rule="evenodd" transform="translate(-132.000000, -208.000000)">
        <g id="Group-24" transform="translate(53.000000, 189.000000)">
            <g id="Group-23" transform="translate(79.000000, 19.000000)">
                <circle id="Oval-7-Copy" fill="#B8E986" cx="4" cy="39" r="4"></circle>
                <g id="Group-21" transform="translate(6.000000, 0.000000)">
                    <mask id="mask-2" fill="white">
                        <use xlink:href="#path-1"></use>
                    </mask>
                    <use id="Oval-7" fill="#DDF0FF" xlink:href="#path-1"></use>
                    <g id="Group-20" filter="url(#filter-3)" mask="url(#mask-2)">
                        <g transform="translate(16.619048, 29.428571)">
                            <path d="M4.38095238,0 L53.4578755,0 L69.3809524,15.531746 L69.3809524,69.5714286 C69.3809524,71.7805676 67.5900914,73.5714286 65.3809524,73.5714286 L4.38095238,73.5714286 C2.17181338,73.5714286 0.380952381,71.7805676 0.380952381,69.5714286 L0.380952381,4 C0.380952381,1.790861 2.17181338,-3.82769592e-17 4.38095238,-4.4408921e-16 Z" id="Rectangle-17" fill="url(#linearGradient-4)" fill-rule="evenodd"></path>
                            <g id="Rectangle-17-Copy-5" fill="none">
                                <use fill="black" fill-opacity="1" filter="url(#filter-7)" xlink:href="#path-6"></use>
                                <use fill="url(#linearGradient-5)" fill-rule="evenodd" xlink:href="#path-6"></use>
                            </g>
                            <rect id="Rectangle-17-Copy-2" fill="#FFFFFF" fill-rule="evenodd" opacity="0.5" x="13.6269841" y="61.3968254" width="4" height="18.8015873" rx="2"></rect>
                            <rect id="Rectangle-17-Copy-3" fill="#FFFFFF" fill-rule="evenodd" opacity="0.5" x="33.2460317" y="56.4920635" width="4" height="23.7063492" rx="2"></rect>
                            <rect id="Rectangle-17-Copy-4" fill="#FFFFFF" fill-rule="evenodd" opacity="0.5" x="52.047619" y="45.047619" width="4" height="33.515873" rx="2"></rect>
                            <g id="Rectangle-17-Copy" fill="none">
                                <use fill="black" fill-opacity="1" filter="url(#filter-10)" xlink:href="#path-9"></use>
                                <use fill="url(#linearGradient-8)" fill-rule="evenodd" xlink:href="#path-9"></use>
                            </g>
                        </g>
                    </g>
                </g>
                <g id="Rectangle-18">
                    <use fill="black" fill-opacity="1" filter="url(#filter-12)" xlink:href="#path-11"></use>
                    <use fill="#F8E71C" fill-rule="evenodd" xlink:href="#path-11"></use>
                </g>
                <circle id="Oval-7-Copy-5" fill="#FFF0C9" cx="33" cy="8" r="5"></circle>
                <circle id="Oval-7-Copy-4" fill="#B8E986" cx="73.5" cy="20.5" r="3.5"></circle>
                <polygon id="Rectangle-18-Copy" fill="#90E0FF" points="11.1875 58 12.5 55 13.8125 58 16 59.2857143 13.8125 60.5714286 12.5 64 11.1875 60.5714286 9 59.2857143"></polygon>
                <polygon id="Rectangle-18-Copy-3" fill="#B8D9FF" points="99.125 26.3333333 101 22 102.875 26.3333333 106 28.1904762 102.875 30.047619 101 35 99.125 30.047619 96 28.1904762"></polygon>
                <polygon id="Rectangle-18-Copy-2" fill="#5DAEFF" points="57.1875 15 58.5 12 59.8125 15 62 16.2857143 59.8125 17.5714286 58.5 21 57.1875 17.5714286 55 16.2857143"></polygon>
                <g id="Group-22" opacity="0.502173913" transform="translate(38.000000, 58.000000)" stroke="#FFFFFF" stroke-linecap="round" stroke-width="4">
                    <path d="M0,28 C15.0333333,22.5098039 27.7433333,14 38.13,2.47058824" id="Path-34"></path>
                    <polyline id="Path-35" stroke-linejoin="round" transform="translate(36.275383, 4.876887) rotate(-15.000000) translate(-36.275383, -4.876887) " points="32.9357584 0.726663472 39.6150084 2.52406629 37.8799909 9.02711016"></polyline>
                </g>
            </g>
        </g>
    </g>
</svg>