<svg width="267" height="60" xmlns="http://www.w3.org/2000/svg" xmlns:xlink="http://www.w3.org/1999/xlink"><defs><path id="a" d="M9 0h249l9 9H.5z"/><filter x="-.6%" y="-16.7%" width="101.1%" height="133.3%" filterUnits="objectBoundingBox" id="b"><feOffset dy="3" in="SourceAlpha" result="shadowOffsetInner1"/><feComposite in="shadowOffsetInner1" in2="SourceAlpha" operator="arithmetic" k2="-1" k3="1" result="shadowInnerInner1"/><feColorMatrix values="0 0 0 0 0.0250545579 0 0 0 0 0.42893109 0 0 0 0 0.823049532 0 0 0 0.746178668 0" in="shadowInnerInner1"/></filter><linearGradient x1="94.8163315%" y1="70.4290234%" x2="8.0610764%" y2="89.1882006%" id="e"><stop stop-color="#008FFF" offset="0%"/><stop stop-color="#087AFF" offset="100%"/></linearGradient><path d="M9 .0207615h249.5c-4.730516-.305185-8.662426 2.754199-11.79573 9.1781524-2.486875 5.0986338-4.617696 12.6181949-6.392463 22.5586833l.000001 3e-7c-.851529 4.7694231-4.999489 8.2424017-9.844332 8.2424017l-192.9913054-.0000043c-4.8281698 0-8.9668663-3.4496945-9.8364626-8.1989077-1.8244995-9.9643225-3.8649577-17.2017294-6.1213746-21.7122206C18.6836 4.4223425 14.5108222 1.0663075 9 .0207615z" id="d"/><filter x="-6.8%" y="-32.5%" width="113.6%" height="185%" filterUnits="objectBoundingBox" id="c"><feOffset dy="4" in="SourceAlpha" result="shadowOffsetOuter1"/><feGaussianBlur stdDeviation="5" in="shadowOffsetOuter1" result="shadowBlurOuter1"/><feColorMatrix values="0 0 0 0 0.2 0 0 0 0 0.6 0 0 0 0 1 0 0 0 0.3 0" in="shadowBlurOuter1"/></filter><filter x="-4.6%" y="-18.8%" width="109.2%" height="157.5%" filterUnits="objectBoundingBox" id="f"><feOffset dy="3" in="SourceAlpha" result="shadowOffsetInner1"/><feComposite in="shadowOffsetInner1" in2="SourceAlpha" operator="arithmetic" k2="-1" k3="1" result="shadowInnerInner1"/><feColorMatrix values="0 0 0 0 1 0 0 0 0 1 0 0 0 0 1 0 0 0 0.301658741 0" in="shadowInnerInner1" result="shadowMatrixInner1"/><feGaussianBlur stdDeviation=".5" in="SourceAlpha" result="shadowBlurInner2"/><feOffset dy="-2" in="shadowBlurInner2" result="shadowOffsetInner2"/><feComposite in="shadowOffsetInner2" in2="SourceAlpha" operator="arithmetic" k2="-1" k3="1" result="shadowInnerInner2"/><feColorMatrix values="0 0 0 0 0 0 0 0 0 0 0 0 0 0 0 0 0 0 0.190557065 0" in="shadowInnerInner2" result="shadowMatrixInner2"/><feMerge><feMergeNode in="shadowMatrixInner1"/><feMergeNode in="shadowMatrixInner2"/></feMerge></filter></defs><g fill="none" fill-rule="evenodd"><g transform="translate(0 6)"><use fill="#034BC2" xlink:href="#a"/><use fill="#000" filter="url(#b)" xlink:href="#a"/></g><g transform="translate(0 6)"><use fill="#000" filter="url(#c)" xlink:href="#d"/><use fill="url(#e)" xlink:href="#d"/><use fill="#000" filter="url(#f)" xlink:href="#d"/></g><g transform="translate(44 20)" fill="#FFF"><circle cx="25.5" cy="1.5" r="1.5"/><circle opacity=".7013134" cx="17.5" cy="1.5" r="1.5"/><circle opacity=".396909" cx="9.5" cy="1.5" r="1.5"/><circle opacity=".2" cx="1.5" cy="1.5" r="1.5"/><circle cx="25.5" cy="6.5" r="1.5"/><circle opacity=".7013134" cx="17.5" cy="6.5" r="1.5"/><circle opacity=".396909" cx="9.5" cy="6.5" r="1.5"/><circle opacity=".2" cx="1.5" cy="6.5" r="1.5"/><circle cx="25.5" cy="11.5" r="1.5"/><circle opacity=".7013134" cx="17.5" cy="11.5" r="1.5"/><circle opacity=".396909" cx="9.5" cy="11.5" r="1.5"/><circle opacity=".2" cx="1.5" cy="11.5" r="1.5"/></g><g transform="rotate(-180 112.5 16.5)" fill="#FFF"><circle cx="25.5" cy="1.5" r="1.5"/><circle opacity=".7013134" cx="17.5" cy="1.5" r="1.5"/><circle opacity=".396909" cx="9.5" cy="1.5" r="1.5"/><circle opacity=".2" cx="1.5" cy="1.5" r="1.5"/><circle cx="25.5" cy="6.5" r="1.5"/><circle opacity=".7013134" cx="17.5" cy="6.5" r="1.5"/><circle opacity=".396909" cx="9.5" cy="6.5" r="1.5"/><circle opacity=".2" cx="1.5" cy="6.5" r="1.5"/><circle cx="25.5" cy="11.5" r="1.5"/><circle opacity=".7013134" cx="17.5" cy="11.5" r="1.5"/><circle opacity=".396909" cx="9.5" cy="11.5" r="1.5"/><circle opacity=".2" cx="1.5" cy="11.5" r="1.5"/></g></g></svg>