<?xml version="1.0" encoding="UTF-8"?>
<svg width="18px" height="18px" viewBox="0 0 18 18" version="1.1" xmlns="http://www.w3.org/2000/svg" xmlns:xlink="http://www.w3.org/1999/xlink">
    <!-- Generator: Sketch 48.2 (47327) - http://www.bohemiancoding.com/sketch -->
    <title>叹号</title>
    <desc>Created with Sketch.</desc>
    <defs></defs>
    <g id="转账首页" stroke="none" stroke-width="1" fill="none" fill-rule="evenodd" transform="translate(-333.000000, -284.000000)">
        <g id="叹号" transform="translate(333.000000, 284.000000)" fill="#3399FF" fill-rule="nonzero">
            <path d="M9,17.75 C4.16750844,17.75 0.25,13.8324916 0.25,9 C0.25,4.16750844 4.16750844,0.25 9,0.25 C13.8324916,0.25 17.75,4.16750844 17.75,9 C17.75,13.8324916 13.8324916,17.75 9,17.75 Z M9,16.25 C13.0040644,16.25 16.25,13.0040644 16.25,9 C16.25,4.99593556 13.0040644,1.75 9,1.75 C4.99593556,1.75 1.75,4.99593556 1.75,9 C1.75,13.0040644 4.99593556,16.25 9,16.25 Z" id="Oval"></path>
            <path d="M8.25,12 L8.25,13 C8.25,13.4142136 8.58578644,13.75 9,13.75 C9.41421356,13.75 9.75,13.4142136 9.75,13 L9.75,12 C9.75,11.5857864 9.41421356,11.25 9,11.25 C8.58578644,11.25 8.25,11.5857864 8.25,12 Z" id="Path-2"></path>
            <path d="M8.25,5 L8.25,9 C8.25,9.41421356 8.58578644,9.75 9,9.75 C9.41421356,9.75 9.75,9.41421356 9.75,9 L9.75,5 C9.75,4.58578644 9.41421356,4.25 9,4.25 C8.58578644,4.25 8.25,4.58578644 8.25,5 Z" id="Path-3"></path>
        </g>
    </g>
</svg>