<svg width="100" height="91" xmlns="http://www.w3.org/2000/svg" xmlns:xlink="http://www.w3.org/1999/xlink"><defs><linearGradient x1="50%" y1="0%" x2="50%" y2="100%" id="a"><stop stop-color="#FFD270" offset="0%"/><stop stop-color="#C36300" offset="100%"/></linearGradient><linearGradient x1="100%" y1="50%" x2="3.87%" y2="50%" id="b"><stop stop-color="#FFE14E" offset="0%"/><stop stop-color="#FFC55D" offset="100%"/></linearGradient><linearGradient x1="50%" y1="0%" x2="50%" y2="100%" id="d"><stop stop-color="#F4B600" offset="0%"/><stop stop-color="#E57F00" offset="100%"/></linearGradient><rect id="c" width="86" height="52" rx="6"/><rect id="e" width="86" height="52" rx="6"/><filter x="-1.7%" y="-2.9%" width="103.5%" height="105.8%" filterUnits="objectBoundingBox" id="f"><feGaussianBlur stdDeviation="1" in="SourceAlpha" result="shadowBlurInner1"/><feOffset dy="1" in="shadowBlurInner1" result="shadowOffsetInner1"/><feComposite in="shadowOffsetInner1" in2="SourceAlpha" operator="arithmetic" k2="-1" k3="1" result="shadowInnerInner1"/><feColorMatrix values="0 0 0 0 0 0 0 0 0 0 0 0 0 0 0 0 0 0 0.2 0" in="shadowInnerInner1"/></filter><radialGradient cy="51.2%" fx="50%" fy="51.2%" r="42.6%" gradientTransform="matrix(0 .98096 -1 0 1.01 .02)" id="g"><stop stop-color="#FFF" stop-opacity=".5" offset="0%"/><stop stop-color="#FFF" stop-opacity="0" offset="100%"/></radialGradient><filter x="-53.3%" y="-22.4%" width="206.7%" height="165.3%" filterUnits="objectBoundingBox" id="i"><feOffset dy="5" in="SourceAlpha" result="shadowOffsetOuter1"/><feGaussianBlur stdDeviation="4.5" in="shadowOffsetOuter1" result="shadowBlurOuter1"/><feColorMatrix values="0 0 0 0 0 0 0 0 0 0 0 0 0 0 0 0 0 0 0.541157156 0" in="shadowBlurOuter1" result="shadowMatrixOuter1"/><feMerge><feMergeNode in="shadowMatrixOuter1"/><feMergeNode in="SourceGraphic"/></feMerge></filter><linearGradient x1="41.27%" y1="0%" x2="41.27%" y2="79.56%" id="j"><stop stop-color="#FFEB45" offset="0%"/><stop stop-color="#FFCD7F" offset="100%"/></linearGradient><rect id="k" width="30" height="49" rx="4"/><filter x="-5%" y="-3.1%" width="110%" height="106.1%" filterUnits="objectBoundingBox" id="l"><feGaussianBlur stdDeviation="1" in="SourceAlpha" result="shadowBlurInner1"/><feOffset dy="1" in="shadowBlurInner1" result="shadowOffsetInner1"/><feComposite in="shadowOffsetInner1" in2="SourceAlpha" operator="arithmetic" k2="-1" k3="1" result="shadowInnerInner1"/><feColorMatrix values="0 0 0 0 1 0 0 0 0 1 0 0 0 0 1 0 0 0 0.5 0" in="shadowInnerInner1"/></filter><linearGradient x1="53.19%" y1="0%" x2="50.15%" y2="95.18%" id="m"><stop stop-color="#FFF9CF" offset="0%"/><stop stop-color="#FFF496" offset="100%"/></linearGradient></defs><g fill="none" fill-rule="evenodd"><rect fill="url(#a)" opacity=".6" y="5" width="100" height="86" rx="12"/><rect fill="url(#b)" x="1" width="98" height="83" rx="12"/><rect stroke="#FFFAB8" stroke-width="2" x="2" y="1" width="96" height="81" rx="12"/><g transform="translate(7 6)"><use fill="url(#d)" opacity=".3" xlink:href="#c"/><mask id="h" fill="#fff"><use xlink:href="#e"/></mask><g opacity=".3"><use fill-opacity=".08" fill="#F0AF4E" xlink:href="#e"/><use fill="#000" filter="url(#f)" xlink:href="#e"/></g><path d="M40.92 21.8l-2.55-43.3h9.77L45.6 21.8l23.39-36.53 7.9 5.75-27.5 33.53 40.39-15.8 3.02 9.3L50.83 29 92.8 39.96l-3.02 9.3-40.4-15.8L76.9 66.97 69 72.73 45.59 36.2l2.55 43.3h-9.77l2.55-43.3-23.4 36.53-7.9-5.75 27.51-33.53-40.4 15.8-3.01-9.3L35.68 29-6.28 18.04l3.02-9.3 40.4 15.8L9.61-8.97l7.9-5.75 23.4 36.53z" fill="url(#g)" opacity=".66" mask="url(#h)"/><g filter="url(#i)" mask="url(#h)"><g transform="translate(28 14)"><use fill="url(#j)" xlink:href="#k"/><use fill="#000" filter="url(#l)" xlink:href="#k"/><rect fill="#BB6E00" opacity=".54" x="12.22" y="3.09" width="5.56" height="1" rx=".5"/><rect fill="url(#m)" x="2.22" y="6" width="25.56" height="35.19" rx="1.08"/></g></g></g><g stroke="#DD8A00" stroke-linecap="round" stroke-linejoin="round" stroke-width="2"><path d="M51 34h7v5m-9 11h-7v-5"/><path fill="#DD8A00" d="M53 46h5v4h-5z"/><path d="M49 46v1m-3 0v-2M42 42h16M51 37v2M54 38v1.33"/><path fill="#DD8A00" d="M42 34h5v4h-5z"/></g><g fill="#FFF9B2"><path d="M25 40.26l-1.85.98.35-2.07-1.5-1.46 2.07-.3.93-1.88.93 1.88 2.07.3-1.5 1.46.35 2.07z"/><path opacity=".8" d="M32.4 16.48l-1.67-.51 1.42-1.01-.02-1.75 1.4 1.05 1.65-.56-.56 1.65 1.04 1.4-1.74-.02-1 1.42z"/><path opacity=".42" d="M44 17.15l-1.24.65.24-1.37-1-.98 1.38-.2L44 14l.62 1.25 1.38.2-1 .98.24 1.37z"/><path opacity=".51" d="M67.5 19.94l-1.55.82.3-1.73L65 17.82l1.73-.25.77-1.57.77 1.57 1.73.25-1.25 1.21.3 1.73z"/><path opacity=".37" d="M31.63 34.99l-.75 1.18-.48-1.31-1.36-.35 1.1-.86-.1-1.4 1.17.78 1.3-.52-.38 1.35.9 1.07z"/><path d="M77.1 39.89l-1.7.38.72-1.58-.89-1.5 1.73.2 1.16-1.3.34 1.7 1.6.7-1.52.85-.16 1.73z"/></g></g></svg>