<svg width="100" height="91" xmlns="http://www.w3.org/2000/svg" xmlns:xlink="http://www.w3.org/1999/xlink"><defs><linearGradient x1="50%" y1="2.92%" x2="50%" y2="100%" id="a"><stop stop-color="#FFA494" offset="0%"/><stop stop-color="#B40303" offset="100%"/></linearGradient><linearGradient x1="96.23%" y1="50%" x2="0%" y2="50%" id="b"><stop stop-color="#FFA6A6" offset="0%"/><stop stop-color="#FF7998" offset="100%"/></linearGradient><rect id="c" width="86" height="52" rx="6"/><rect id="d" width="86" height="52" rx="6"/><filter x="-1.7%" y="-2.9%" width="103.5%" height="105.8%" filterUnits="objectBoundingBox" id="e"><feGaussianBlur stdDeviation="1" in="SourceAlpha" result="shadowBlurInner1"/><feOffset dy="1" in="shadowBlurInner1" result="shadowOffsetInner1"/><feComposite in="shadowOffsetInner1" in2="SourceAlpha" operator="arithmetic" k2="-1" k3="1" result="shadowInnerInner1"/><feColorMatrix values="0 0 0 0 0 0 0 0 0 0 0 0 0 0 0 0 0 0 0.2 0" in="shadowInnerInner1"/></filter><radialGradient cy="51.2%" fx="50%" fy="51.2%" r="42.6%" gradientTransform="matrix(0 .98096 -1 0 1.01 .02)" id="f"><stop stop-color="#FFF" stop-opacity=".5" offset="0%"/><stop stop-color="#FFF" stop-opacity="0" offset="100%"/></radialGradient><filter x="-53.3%" y="-22.4%" width="206.7%" height="165.3%" filterUnits="objectBoundingBox" id="h"><feOffset dy="5" in="SourceAlpha" result="shadowOffsetOuter1"/><feGaussianBlur stdDeviation="4.5" in="shadowOffsetOuter1" result="shadowBlurOuter1"/><feColorMatrix values="0 0 0 0 0 0 0 0 0 0 0 0 0 0 0 0 0 0 0.541157156 0" in="shadowBlurOuter1" result="shadowMatrixOuter1"/><feMerge><feMergeNode in="shadowMatrixOuter1"/><feMergeNode in="SourceGraphic"/></feMerge></filter><linearGradient x1="65.85%" y1="0%" x2="65.85%" y2="78.93%" id="i"><stop stop-color="#FFBFB8" offset="0%"/><stop stop-color="#FC937C" offset="100%"/></linearGradient><rect id="j" width="30" height="49" rx="4"/><filter x="-5%" y="-3.1%" width="110%" height="106.1%" filterUnits="objectBoundingBox" id="k"><feGaussianBlur stdDeviation="1" in="SourceAlpha" result="shadowBlurInner1"/><feOffset dy="1" in="shadowBlurInner1" result="shadowOffsetInner1"/><feComposite in="shadowOffsetInner1" in2="SourceAlpha" operator="arithmetic" k2="-1" k3="1" result="shadowInnerInner1"/><feColorMatrix values="0 0 0 0 1 0 0 0 0 1 0 0 0 0 1 0 0 0 0.5 0" in="shadowInnerInner1"/></filter><linearGradient x1="53.05%" y1="4.34%" x2="50.15%" y2="95.36%" id="l"><stop stop-color="#FFE9E2" offset="0%"/><stop stop-color="#FFC1B1" offset="100%"/></linearGradient></defs><g fill="none" fill-rule="evenodd"><rect fill="url(#a)" opacity=".6" y="5" width="100" height="86" rx="12"/><rect fill="url(#b)" x="1" width="98" height="83" rx="12"/><rect stroke="#FFE3DF" stroke-width="2" x="2" y="1" width="96" height="81" rx="12"/><g transform="translate(7 6)"><use fill="#FF5740" opacity=".3" xlink:href="#c"/><mask id="g" fill="#fff"><use xlink:href="#d"/></mask><g opacity=".3"><use fill-opacity=".08" fill="#4E5DF0" xlink:href="#d"/><use fill="#000" filter="url(#e)" xlink:href="#d"/></g><path d="M40.9 21.73l-2.58-43.7h9.87l-2.57 43.7 23.6-36.87 7.99 5.8-27.77 33.85L90.21 8.56l3.05 9.38L50.9 29l42.36 11.06-3.05 9.38L49.44 33.5l27.77 33.85-7.98 5.8-23.61-36.87 2.57 43.7h-9.87l2.58-43.7-23.61 36.87-7.98-5.8 27.76-33.85-40.76 15.95-3.05-9.38L35.6 29-6.74 17.94l3.05-9.38L37.07 24.5 9.31-9.34l7.98-5.8 23.6 36.87z" fill="url(#f)" opacity=".66" mask="url(#g)"/><g filter="url(#h)" mask="url(#g)"><g transform="translate(28 14)"><use fill="url(#i)" xlink:href="#j"/><use fill="#000" filter="url(#k)" xlink:href="#j"/><rect fill="#882A00" opacity=".37" x="12.22" y="3.09" width="5.56" height="1" rx=".5"/><rect fill="url(#l)" x="2.22" y="6" width="25.56" height="35.19" rx="1.08"/><circle fill="#F94141" cx="15" cy="22" r="9"/><path stroke="#FFF" stroke-width="2" stroke-linecap="round" stroke-linejoin="round" d="M11.5 22l3 3 3.5-5"/></g></g></g><g fill="#FFCDCD"><path d="M26 40.26l-1.85.98.35-2.07-1.5-1.46 2.07-.3.93-1.88.93 1.88 2.07.3-1.5 1.46.35 2.07z"/><path opacity=".8" d="M33.4 16.48l-1.67-.51 1.42-1.01-.02-1.75 1.4 1.05 1.65-.56-.56 1.65 1.04 1.4-1.74-.02-1 1.42z"/><path opacity=".42" d="M45 17.15l-1.24.65.24-1.37-1-.98 1.38-.2L45 14l.62 1.25 1.38.2-1 .98.24 1.37z"/><path opacity=".51" d="M68.5 19.94l-1.55.82.3-1.73L66 17.82l1.73-.25.77-1.57.77 1.57 1.73.25-1.25 1.21.3 1.73z"/><path opacity=".37" d="M32.63 34.99l-.75 1.18-.48-1.31-1.36-.35 1.1-.86-.1-1.4 1.17.78 1.3-.52-.38 1.35.9 1.07z"/><path d="M78.1 39.89l-1.7.38.72-1.58-.89-1.5 1.73.2 1.16-1.3.34 1.7 1.6.7-1.52.85-.16 1.73z"/></g></g></svg>