<svg width="100" height="91" xmlns="http://www.w3.org/2000/svg" xmlns:xlink="http://www.w3.org/1999/xlink"><defs><linearGradient x1="50%" y1="0%" x2="50%" y2="100%" id="a"><stop stop-color="#61CCFF" offset="0%"/><stop stop-color="#006CE4" offset="100%"/></linearGradient><linearGradient x1="100%" y1="50%" x2="0%" y2="50%" id="b"><stop stop-color="#95DCFF" offset="0%"/><stop stop-color="#74B6FF" offset="100%"/></linearGradient><rect id="c" x="1" width="98" height="83" rx="12"/><rect id="d" width="86" height="52" rx="6"/><rect id="e" width="86" height="52" rx="6"/><filter x="-1.7%" y="-2.9%" width="103.5%" height="105.8%" filterUnits="objectBoundingBox" id="f"><feGaussianBlur stdDeviation="1" in="SourceAlpha" result="shadowBlurInner1"/><feOffset dy="1" in="shadowBlurInner1" result="shadowOffsetInner1"/><feComposite in="shadowOffsetInner1" in2="SourceAlpha" operator="arithmetic" k2="-1" k3="1" result="shadowInnerInner1"/><feColorMatrix values="0 0 0 0 0 0 0 0 0 0 0 0 0 0 0 0 0 0 0.2 0" in="shadowInnerInner1"/></filter><radialGradient cy="51.2%" fx="50%" fy="51.2%" r="42.6%" gradientTransform="matrix(0 .98096 -1 0 1.01 .02)" id="g"><stop stop-color="#FFF" stop-opacity=".5" offset="0%"/><stop stop-color="#FFF" stop-opacity="0" offset="100%"/></radialGradient><filter x="-53.3%" y="-22.4%" width="206.7%" height="165.3%" filterUnits="objectBoundingBox" id="i"><feOffset dy="5" in="SourceAlpha" result="shadowOffsetOuter1"/><feGaussianBlur stdDeviation="4.5" in="shadowOffsetOuter1" result="shadowBlurOuter1"/><feColorMatrix values="0 0 0 0 0 0 0 0 0 0 0 0 0 0 0 0 0 0 0.541157156 0" in="shadowBlurOuter1" result="shadowMatrixOuter1"/><feMerge><feMergeNode in="shadowMatrixOuter1"/><feMergeNode in="SourceGraphic"/></feMerge></filter><linearGradient x1="61.56%" y1="0%" x2="61.56%" y2="82.9%" id="j"><stop stop-color="#B7E7FF" offset="0%"/><stop stop-color="#83BCFF" offset="100%"/></linearGradient><rect id="k" width="30" height="49" rx="4"/><filter x="-5%" y="-3.1%" width="110%" height="106.1%" filterUnits="objectBoundingBox" id="l"><feGaussianBlur stdDeviation="1" in="SourceAlpha" result="shadowBlurInner1"/><feOffset dy="1" in="shadowBlurInner1" result="shadowOffsetInner1"/><feComposite in="shadowOffsetInner1" in2="SourceAlpha" operator="arithmetic" k2="-1" k3="1" result="shadowInnerInner1"/><feColorMatrix values="0 0 0 0 1 0 0 0 0 1 0 0 0 0 1 0 0 0 0.5 0" in="shadowInnerInner1"/></filter><linearGradient x1="53.19%" y1="0%" x2="53.19%" y2="96.19%" id="m"><stop stop-color="#E6F7FF" offset="0%"/><stop stop-color="#AAD6FF" offset="100%"/></linearGradient></defs><g fill="none" fill-rule="evenodd"><rect fill="url(#a)" opacity=".6" y="5" width="100" height="86" rx="12"/><use fill="url(#b)" xlink:href="#c"/><rect stroke="#D0FDFF" stroke-width="2" x="2" y="1" width="96" height="81" rx="12"/><g transform="translate(7 6)"><use fill="#1B88FE" opacity=".3" xlink:href="#d"/><mask id="h" fill="#fff"><use xlink:href="#e"/></mask><g opacity=".3"><use fill-opacity=".08" fill="#4EB7F0" xlink:href="#e"/><use fill="#000" filter="url(#f)" xlink:href="#e"/></g><path d="M40.9 21.73L38.31-22h9.87l-2.57 43.73 23.62-36.9 7.99 5.81L49.44 24.5l40.8-15.95 3.05 9.38L50.9 29l42.38 11.07-3.05 9.38-40.8-15.95 27.79 33.86-7.99 5.8-23.62-36.89L48.2 80h-9.87l2.57-43.73-23.62 36.9-7.98-5.81L37.07 33.5l-40.8 15.95-3.04-9.38L35.6 29-6.77 17.93l3.05-9.38L37.07 24.5 9.29-9.36l7.98-5.8L40.9 21.73z" fill="url(#g)" opacity=".66" mask="url(#h)"/><g mask="url(#h)" fill="#B9E7FF"><path d="M18 34.26l-1.85.98.35-2.07-1.5-1.46 2.07-.3.93-1.88.93 1.88 2.07.3-1.5 1.46.35 2.07z"/><path opacity=".8" d="M25.4 10.48l-1.67-.51 1.42-1.01-.02-1.75 1.4 1.05 1.65-.56-.56 1.65 1.04 1.4-1.74-.02-1 1.42z"/><path opacity=".42" d="M37 11.15l-1.24.65.24-1.37-1-.98 1.38-.2L37 8l.62 1.25 1.38.2-1 .98.24 1.37z"/><path opacity=".51" d="M60.5 13.94l-1.55.82.3-1.73L58 11.82l1.73-.25.77-1.57.77 1.57 1.73.25-1.25 1.21.3 1.73z"/><path opacity=".37" d="M24.63 28.99l-.75 1.18-.48-1.31-1.36-.35 1.1-.86-.1-1.4 1.17.78 1.3-.52-.38 1.35.9 1.07z"/><path d="M70.1 33.89l-1.7.38.72-1.58-.89-1.5 1.73.2 1.16-1.3.34 1.7 1.6.7-1.52.85-.16 1.73z"/></g><g filter="url(#i)" mask="url(#h)"><g transform="translate(28 14)"><use fill="url(#j)" xlink:href="#k"/><use fill="#000" filter="url(#l)" xlink:href="#k"/><rect fill="#003BA1" opacity=".43" x="12.22" y="3.09" width="5.56" height="1" rx=".5"/><rect fill="url(#m)" x="2.22" y="6" width="25.56" height="35.19" rx="1.08"/><circle fill="#0486E6" cx="15" cy="22" r="9"/><path stroke="#FFF" stroke-width="2" stroke-linecap="round" stroke-linejoin="round" d="M19 23h-5v-7"/></g></g></g></g></svg>