<?xml version="1.0" encoding="utf-8"?>
<!-- Generator: Adobe Illustrator 22.0.1, SVG Export Plug-In . SVG Version: 6.00 Build 0)  -->
<svg version="1.1" baseProfile="tiny" id="Layer_1" xmlns="http://www.w3.org/2000/svg" xmlns:xlink="http://www.w3.org/1999/xlink"
	 x="0px" y="0px" viewBox="0 0 1901.4 856" xml:space="preserve">
<g>
	<line fill="none" stroke="#E5E5E5" stroke-width="2" stroke-miterlimit="10" x1="617.4" y1="321.8" x2="617.4" y2="327.8"/>
	
		<line fill="none" stroke="#E5E5E5" stroke-width="2" stroke-miterlimit="10" stroke-dasharray="12.4479,12.4479" x1="617.4" y1="340.2" x2="617.4" y2="632.8"/>
	<line fill="none" stroke="#E5E5E5" stroke-width="2" stroke-miterlimit="10" x1="617.4" y1="639" x2="617.4" y2="645"/>
</g>
<g>
	<line fill="none" stroke="#E5E5E5" stroke-width="2" stroke-miterlimit="10" x1="1055.4" y1="321.7" x2="1055.4" y2="327.7"/>
	
		<line fill="none" stroke="#E5E5E5" stroke-width="2" stroke-miterlimit="10" stroke-dasharray="12.452,12.452" x1="1055.4" y1="340.2" x2="1055.4" y2="632.8"/>
	<line fill="none" stroke="#E5E5E5" stroke-width="2" stroke-miterlimit="10" x1="1055.4" y1="639" x2="1055.4" y2="645"/>
</g>
<path fill="#F4F4F4" d="M939.7,496.7H724.1c-5.1,0-9.2-4.1-9.2-9.2V436c0-5.1,4.1-9.2,9.2-9.2h215.5c5.1,0,9.2,4.1,9.2,9.2v51.5
	C948.9,492.6,944.8,496.7,939.7,496.7z"/>
<g>
	<text transform="matrix(1 0 0 1 14.8733 367.6982)" fill="#7C7C7C" font-family="'ArialMT'" font-size="24px">snippets</text>
</g>
<g>
	<text transform="matrix(1 0 0 1 14.8733 203.6982)" fill="#7C7C7C" font-family="'ArialMT'" font-size="24px">assets</text>
	<path fill="#C4C4C4" d="M71.6,133c-0.6-0.6-1.3-0.9-2-0.9H41.4l-6.3-6.3c-0.2-0.2-0.6-0.5-0.9-0.6c-0.4-0.1-0.7-0.2-1.1-0.2H18
		c-0.7,0-1.5,0.3-2,0.9c-0.5,0.6-0.9,1.3-0.9,2v16.7h57.3V135C72.5,134.3,72.2,133.6,71.6,133z"/>
	<path fill="#E5E5E5" d="M69.6,169.3H18c-1.6,0-2.9-1.3-2.9-2.9v-26.6h57.3v26.6C72.5,168,71.2,169.3,69.6,169.3z"/>
	<path fill="#C4C4C4" d="M71.6,292c-0.6-0.6-1.3-0.9-2-0.9H41.4l-6.3-6.3c-0.2-0.2-0.6-0.5-0.9-0.6c-0.4-0.1-0.7-0.2-1.1-0.2H18
		c-0.7,0-1.5,0.3-2,0.9s-0.9,1.3-0.9,2v16.7h57.3V294C72.5,293.3,72.2,292.6,71.6,292z"/>
	<path fill="#E5E5E5" d="M69.6,328.3H18c-1.6,0-2.9-1.3-2.9-2.9v-26.6h57.3v26.6C72.5,327,71.2,328.3,69.6,328.3z"/>
	<g>
		<text transform="matrix(1 0 0 1 14.8733 548.6982)" fill="#7C7C7C" font-family="'ArialMT'" font-size="24px">views</text>
	</g>
	<path fill="#C4C4C4" d="M71.6,473c-0.6-0.6-1.3-0.9-2-0.9H41.4l-6.3-6.3c-0.2-0.2-0.6-0.5-0.9-0.6c-0.4-0.1-0.7-0.2-1.1-0.2H18
		c-0.7,0-1.5,0.3-2,0.9s-0.9,1.3-0.9,2v16.7h57.3V475C72.5,474.3,72.2,473.6,71.6,473z"/>
	<path fill="#E5E5E5" d="M69.6,509.3H18c-1.6,0-2.9-1.3-2.9-2.9v-26.6h57.3v26.6C72.5,508,71.2,509.3,69.6,509.3z"/>
	<g>
		<text transform="matrix(1 0 0 1 14.8733 728.6982)" fill="#7C7C7C" font-family="'ArialMT'" font-size="24px">others</text>
	</g>
	<path fill="#F2F2F2" d="M71.6,653c-0.6-0.6-1.3-0.9-2-0.9H41.4l-6.3-6.3c-0.2-0.2-0.6-0.5-0.9-0.6c-0.4-0.1-0.7-0.2-1.1-0.2H18
		c-0.7,0-1.5,0.3-2,0.9c-0.5,0.6-0.9,1.3-0.9,2v16.7h57.3V655C72.5,654.3,72.2,653.6,71.6,653z"/>
	<path fill="#E5E5E5" d="M69.6,689.3H18c-1.6,0-2.9-1.3-2.9-2.9v-26.6h57.3v26.6C72.5,688,71.2,689.3,69.6,689.3z"/>
</g>
<text transform="matrix(1 0 0 1 117.4822 156.2983)" fill="#FF6464" font-family="'ComicSansMS'" font-size="24px">&gt;</text>
<text transform="matrix(1 0 0 1 198.2673 155.8022)" fill="#7C7C7C" font-family="'ArialMT'" font-size="24px">fonts</text>
<text transform="matrix(1 0 0 1 198.2673 191.8022)" fill="#7C7C7C" font-family="'ArialMT'" font-size="24px">images</text>
<text transform="matrix(1 0 0 1 198.2673 230.8022)" fill="#7C7C7C" font-family="'ArialMT'" font-size="24px">css</text>
<text transform="matrix(1 0 0 1 385.2673 231.8022)" fill="#7C7C7C" font-family="'ArialMT'" font-size="24px">share.css</text>
<text transform="matrix(1 0 0 1 117.4822 496.2983)" fill="#FF6464" font-family="'ComicSansMS'" font-size="24px">&gt;</text>
<g>
	<text transform="matrix(1 0 0 1 1195.2227 317.5023)" fill="#7C7C7C" font-family="'ArialMT'" font-size="24px">assets</text>
</g>
<path fill="#C4C4C4" d="M1251.9,241.8c-0.6-0.6-1.3-0.9-2-0.9h-28.2l-6.3-6.3c-0.2-0.2-0.6-0.5-0.9-0.6c-0.4-0.1-0.7-0.2-1.1-0.2
	h-15.1c-0.7,0-1.5,0.3-2,0.9s-0.9,1.3-0.9,2v16.7h57.3v-9.6C1252.8,243.1,1252.5,242.4,1251.9,241.8z"/>
<path fill="#E5E5E5" d="M1249.9,278.1h-51.6c-1.6,0-2.9-1.3-2.9-2.9v-26.6h57.3v26.6C1252.8,276.8,1251.5,278.1,1249.9,278.1z"/>
<text transform="matrix(1 0 0 1 1297.8315 265.1024)" fill="#FF6464" font-family="'ComicSansMS'" font-size="24px">&gt;</text>
<text transform="matrix(1 0 0 1 117.4822 674.2983)" fill="#BFBFBF" font-family="'ComicSansMS'" font-size="24px">&gt;</text>
<text transform="matrix(1 0 0 1 333.4822 499.019)" fill="#FF6464" font-family="'ComicSansMS'" font-size="24px">&gt;</text>
<text transform="matrix(1 0 0 1 333.4822 232.0189)" fill="#FF6464" font-family="'ComicSansMS'" font-size="24px">&gt;</text>
<text transform="matrix(1 0 0 1 333.4822 542.5189)" fill="#BFBFBF" font-family="'ComicSansMS'" font-size="24px">&gt;</text>
<text transform="matrix(1 0 0 1 333.4822 582.5189)" fill="#BFBFBF" font-family="'ComicSansMS'" font-size="24px">&gt;</text>
<g>
	<text transform="matrix(1 0 0 1 200.1894 495.8022)" fill="#7C7C7C" font-family="'ArialMT'" font-size="24px">page1</text>
	<text transform="matrix(1 0 0 1 198.2675 539.4689)" fill="#BFBFBF" font-family="'ArialMT'" font-size="24px">page2</text>
	<text transform="matrix(1 0 0 1 199.9269 580.8022)" fill="#BFBFBF" font-family="'ComicSansMS'" font-size="24px">.</text>
	<text transform="matrix(1 0 0 1 210.7033 580.8022)" fill="#BFBFBF" font-family="'ComicSansMS'" font-size="24px">.</text>
	<text transform="matrix(1 0 0 1 221.4802 580.8022)" fill="#BFBFBF" font-family="'ComicSansMS'" font-size="24px">.</text>
	<text transform="matrix(1 0 0 1 224.9269 714.8022)" fill="#BFBFBF" font-family="'ComicSansMS'" font-size="24px">.</text>
	<text transform="matrix(1 0 0 1 235.7033 714.8022)" fill="#BFBFBF" font-family="'ComicSansMS'" font-size="24px">.</text>
	<text transform="matrix(1 0 0 1 246.4802 714.8022)" fill="#BFBFBF" font-family="'ComicSansMS'" font-size="24px">.</text>
	<text transform="matrix(1 0 0 1 1195.2764 672.8022)" fill="#BFBFBF" font-family="'ComicSansMS'" font-size="24px">.</text>
	<text transform="matrix(1 0 0 1 1206.0527 672.8022)" fill="#BFBFBF" font-family="'ComicSansMS'" font-size="24px">.</text>
	<text transform="matrix(1 0 0 1 1216.8296 672.8022)" fill="#BFBFBF" font-family="'ComicSansMS'" font-size="24px">.</text>
	<text transform="matrix(1 0 0 1 1390.2764 538.6063)" fill="#BFBFBF" font-family="'ComicSansMS'" font-size="24px">.</text>
	<text transform="matrix(1 0 0 1 1401.0527 538.6063)" fill="#BFBFBF" font-family="'ComicSansMS'" font-size="24px">.</text>
	<text transform="matrix(1 0 0 1 1411.8296 538.6063)" fill="#BFBFBF" font-family="'ComicSansMS'" font-size="24px">.</text>
	<text transform="matrix(1 0 0 1 25.4269 801.3022)" fill="#BFBFBF" font-family="'ComicSansMS'" font-size="24px">.</text>
	<text transform="matrix(1 0 0 1 36.2033 801.3022)" fill="#BFBFBF" font-family="'ComicSansMS'" font-size="24px">.</text>
	<text transform="matrix(1 0 0 1 46.9802 801.3022)" fill="#BFBFBF" font-family="'ComicSansMS'" font-size="24px">.</text>
</g>
<text transform="matrix(1 0 0 1 429.471 514.0018)" fill="#E86464" font-family="'ArialMT'" font-size="24px">main.js</text>
<text transform="matrix(1 0 0 1 429.471 555.6685)" fill="#0087BC" font-family="'ArialMT'" font-size="24px">main.hbs</text>
<text transform="matrix(1 0 0 1 429.471 597.3353)" fill="#7C7C7C" font-family="'ArialMT'" font-size="24px">private.css</text>
<rect x="171.9" y="487.7" fill="#BFBFBF" width="13" height="5"/>
<rect x="171.9" y="146.7" fill="#BFBFBF" width="13" height="5"/>
<rect x="171.9" y="181.7" fill="#BFBFBF" width="13" height="5"/>
<rect x="171.9" y="221.7" fill="#BFBFBF" width="13" height="5"/>
<text transform="matrix(1 0 0 1 1385.6167 264.6063)" fill="#7C7C7C" font-family="'ArialMT'" font-size="24px">fonts</text>
<text transform="matrix(1 0 0 1 1385.6167 300.6063)" fill="#7C7C7C" font-family="'ArialMT'" font-size="24px">images</text>
<text transform="matrix(1 0 0 1 1385.6167 339.6063)" fill="#7C7C7C" font-family="'ArialMT'" font-size="24px">css</text>
<text transform="matrix(1 0 0 1 1385.6167 463.606)" fill="#7C7C7C" font-family="'ArialMT'" font-size="24px">page1.hash.js</text>
<text transform="matrix(1 0 0 1 1385.6167 505.6063)" fill="#7C7C7C" font-family="'ArialMT'" font-size="24px">page2.hash.js</text>
<text transform="matrix(1 0 0 1 1385.6167 379.6063)" fill="#7C7C7C" font-family="'ArialMT'" font-size="24px">v</text>
<text transform="matrix(1 0 0 1 1397.6167 379.6063)" fill="#7C7C7C" font-family="'ArialMT'" font-size="24px">e</text>
<text transform="matrix(1 0 0 1 1410.9644 379.6063)" fill="#7C7C7C" font-family="'ArialMT'" font-size="24px">n</text>
<text transform="matrix(1 0 0 1 1424.312 379.6063)" fill="#7C7C7C" font-family="'ArialMT'" font-size="24px">d</text>
<text transform="matrix(1 0 0 1 1437.6597 379.6063)" fill="#7C7C7C" font-family="'ArialMT'" font-size="24px">o</text>
<text transform="matrix(1 0 0 1 1451.0073 379.6063)" fill="#7C7C7C" font-family="'ArialMT'" font-size="24px">r</text>
<text transform="matrix(1 0 0 1 1457.6753 379.6063)" fill="#7C7C7C" font-family="'ArialMT'" font-size="24px">.</text>
<text transform="matrix(1 0 0 1 1464.3433 379.6063)" fill="#7C7C7C" font-family="'ArialMT'" font-size="24px">h</text>
<text transform="matrix(1 0 0 1 1477.6909 379.6063)" fill="#7C7C7C" font-family="'ArialMT'" font-size="24px">a</text>
<text transform="matrix(1 0 0 1 1491.0386 379.6063)" fill="#7C7C7C" font-family="'ArialMT'" font-size="24px">s</text>
<text transform="matrix(1 0 0 1 1503.0386 379.6063)" fill="#7C7C7C" font-family="'ArialMT'" font-size="24px">h</text>
<text transform="matrix(1 0 0 1 1516.3862 379.6063)" fill="#7C7C7C" font-family="'ArialMT'" font-size="24px">.</text>
<text transform="matrix(1 0 0 1 1523.0542 379.6063)" fill="#7C7C7C" font-family="'ArialMT'" font-size="24px">j</text>
<text transform="matrix(1 0 0 1 1528.3862 379.6063)" fill="#7C7C7C" font-family="'ArialMT'" font-size="24px">s</text>
<text transform="matrix(1 0 0 1 1385.6167 421.6064)" fill="#7C7C7C" font-family="'ArialMT'" font-size="24px">manifest.hash.js</text>
<rect x="1359.2" y="255.5" fill="#BFBFBF" width="13" height="5"/>
<rect x="1359.2" y="290.5" fill="#BFBFBF" width="13" height="5"/>
<rect x="1359.2" y="330.5" fill="#BFBFBF" width="13" height="5"/>
<text transform="matrix(1 0 0 1 117.4822 315.2983)" fill="#FF6464" font-family="'ComicSansMS'" font-size="24px">&gt;</text>
<text transform="matrix(1 0 0 1 224.2673 327.8022)" fill="#7C7C7C" font-family="'ArialMT'" font-size="24px">meta.hbs</text>
<text transform="matrix(1 0 0 1 224.2673 363.8022)" fill="#7C7C7C" font-family="'ArialMT'" font-size="24px">section.hbs</text>
<text transform="matrix(1 0 0 1 224.2673 402.8022)" fill="#7C7C7C" font-family="'ArialMT'" font-size="24px">section.css</text>
<rect x="171.9" y="305.7" fill="#BFBFBF" width="13" height="5"/>
<rect x="171.9" y="533.7" fill="#BFBFBF" width="13" height="5"/>
<rect x="171.9" y="663.7" fill="#BFBFBF" width="13" height="5"/>
<polygon fill="#EFEFEF" points="371.9,501.4 384.9,501.1 384.9,638.7 "/>
<polygon fill="#EFEFEF" points="1359.2,368.2 1372.2,367.9 1372.2,505.5 "/>
<polygon fill="#EFEFEF" points="171.9,318.4 184.9,318.1 184.9,431.7 "/>
<polygon fill="#EFEFEF" points="171.9,675.4 184.9,675.1 184.9,739.7 "/>
<rect x="371.9" y="491.7" fill="#BFBFBF" width="13" height="5"/>
<text transform="matrix(1 0 0 1 224.8733 433.6982)" fill="#BFBFBF" font-family="'ComicSansMS'" font-size="24px">.</text>
<text transform="matrix(1 0 0 1 235.6497 433.6982)" fill="#BFBFBF" font-family="'ComicSansMS'" font-size="24px">.</text>
<text transform="matrix(1 0 0 1 246.426 433.6982)" fill="#BFBFBF" font-family="'ComicSansMS'" font-size="24px">.</text>
<circle fill="#E86464" cx="368.9" cy="224.7" r="6"/>
<text transform="matrix(1 0 0 1 224.2673 688.8022)" fill="#BFBFBF" font-family="'ArialMT'" font-size="24px">share.js</text>
<circle fill="#E86464" cx="205.9" cy="682.7" r="6"/>
<circle fill="#E86464" cx="410.9" cy="591.7" r="6"/>
<circle fill="#E86464" cx="834.9" cy="461.7" r="6"/>
<circle fill="#E86464" cx="860.9" cy="455.7" r="6"/>
<circle fill="#E86464" cx="885.9" cy="475.7" r="6"/>
<circle fill="#E86464" cx="912.9" cy="467.7" r="6"/>
<text transform="matrix(1 0 0 1 429.471 639.0018)" fill="#7C7C7C" font-family="'ArialMT'" font-size="24px">private.js</text>
<circle fill="#E86464" cx="410.9" cy="632.7" r="6"/>
<circle fill="#E86464" cx="204.9" cy="397.7" r="6"/>
<circle fill="#9ABCE5" cx="204.9" cy="357.7" r="6"/>
<circle fill="#9ABCE5" cx="204.9" cy="321.7" r="6"/>
<polygon fill="#E86464" points="405.9,500.7 415.9,507.7 405.9,514.7 "/>
<polygon fill="#E86464" points="1153.2,253.5 1163.2,260.5 1153.2,267.5 "/>
<polygon fill="#9ABCE5" points="405.9,543.7 415.9,550.7 405.9,557.7 "/>
<text transform="matrix(1 0 0 1 714.9875 415.7812)" fill="#E86464" font-family="'ArialMT'" font-size="24px">main.js</text>
<text transform="matrix(1 0 0 1 735.9827 469.2753)" fill="#7C7C7C" font-family="'ArialMT'" font-size="24px">import</text>
<path fill="#F4F4F4" d="M939.7,630.7H724.1c-5.1,0-9.2-4.1-9.2-9.2V570c0-5.1,4.1-9.2,9.2-9.2h215.5c5.1,0,9.2,4.1,9.2,9.2v51.5
	C948.9,626.6,944.8,630.7,939.7,630.7z"/>
<circle fill="#9ABCE5" cx="834.9" cy="595.7" r="6"/>
<circle fill="#9ABCE5" cx="854.9" cy="609.7" r="6"/>
<circle fill="#9ABCE5" cx="885.9" cy="595.7" r="6"/>
<circle fill="#9ABCE5" cx="912.9" cy="601.7" r="6"/>
<text transform="matrix(1 0 0 1 714.9875 549.7812)" fill="#0087BC" font-family="'ArialMT'" font-size="24px">html.hbs</text>
<text transform="matrix(1 0 0 1 735.9827 603.2753)" fill="#7C7C7C" font-family="'ArialMT'" font-size="24px">insert</text>
<g>
	<g>
		<path fill="#707070" d="M28.8,69.9l-9.9,4.5l-1.1-2.3l7.9-3.4v-0.1l-7.9-3.4l1.1-2.3l9.9,4.6V69.9z"/>
		<path fill="#707070" d="M47.1,71.1c0,0.6-0.2,1.2-0.5,1.7s-0.8,0.9-1.4,1.2c-0.6,0.3-1.3,0.5-2.1,0.7s-1.7,0.2-2.5,0.2
			c-0.6,0-1.1,0-1.5,0s-0.8,0-0.9,0l-0.3-2.6c0.2,0,0.5,0,0.9,0s0.9,0,1.4,0c0.3,0,0.6,0,0.9,0s0.6-0.1,0.9-0.2
			c0.4-0.1,0.7-0.3,0.8-0.4s0.2-0.4,0.2-0.6c0-0.2-0.1-0.4-0.2-0.6S42.3,70.1,42,70c-0.3-0.2-0.6-0.3-1-0.5s-0.8-0.4-1.1-0.6
			c-0.5-0.3-0.9-0.7-1.2-1.2s-0.4-0.9-0.4-1.5c0-0.6,0.2-1.1,0.5-1.6s0.8-0.9,1.5-1.2c0.6-0.3,1.2-0.5,2-0.6s1.5-0.2,2.2-0.2
			c0.6,0,1,0,1.4,0s0.6,0,0.8,0l0.3,2.6c-0.1,0-0.3,0-0.7,0s-0.7,0-1.2,0c-0.3,0-0.7,0-0.9,0.1s-0.6,0.1-0.8,0.2
			c-0.3,0.1-0.5,0.2-0.7,0.4s-0.2,0.3-0.2,0.5c0,0.2,0.1,0.4,0.3,0.6s0.4,0.3,0.7,0.5c0.3,0.2,0.7,0.3,1.1,0.5s0.8,0.4,1,0.5
			c0.5,0.3,0.9,0.7,1.2,1.1S47.1,70.5,47.1,71.1z"/>
		<path fill="#707070" d="M58.4,65.4c-0.6,0.2-1.4,0.4-2.2,0.7s-1.8,0.7-3.1,1.3c0,0.2,0,0.6,0,1.1s0,1,0,1.6c0,0.8,0,1.8,0,2.8
			s0,1.6,0,1.8h-3.6c0-0.2,0-0.8,0-1.8s0-2.2,0-3.8c0-0.8,0-1.7,0-2.8s0-2.3,0-3.6h3.5l0,1.7l0,0c0.7-0.5,1.5-0.9,2.4-1.3
			s1.5-0.7,2-0.8L58.4,65.4z"/>
		<path fill="#707070" d="M68.7,72l-0.4,2.8c-0.1,0-0.2,0-0.3,0s-0.2,0-0.4,0c-1.3,0-2.5-0.1-3.5-0.4s-1.9-0.6-2.7-1.1
			c-0.9-0.5-1.6-1.2-2.1-2s-0.7-1.7-0.7-2.7c0-1,0.2-1.8,0.7-2.6s1.1-1.4,1.9-1.9c0.8-0.5,1.7-0.9,2.8-1.2s2.3-0.4,3.6-0.4
			c0.1,0,0.2,0,0.3,0s0.1,0,0.2,0l0.3,2.8c-0.1,0-0.2,0-0.2,0s-0.1,0-0.2,0c-0.6,0-1.1,0-1.7,0.1s-1.1,0.2-1.7,0.4
			c-0.7,0.2-1.2,0.6-1.7,1.1s-0.6,1-0.6,1.6c0,0.7,0.2,1.2,0.6,1.7s0.9,0.8,1.6,1.1c0.5,0.2,1,0.3,1.7,0.4S67.5,72,68,72
			c0.1,0,0.3,0,0.4,0S68.6,72,68.7,72z"/>
	</g>
</g>
<g>
	<g>
		<path fill="#707070" d="M1091.8,69.9l-9.9,4.5l-1.1-2.3l7.9-3.4v-0.1l-7.9-3.4l1.1-2.3l9.9,4.6V69.9z"/>
		<path fill="#707070" d="M1112.5,74.8c-0.2,0-0.5,0-0.8,0s-0.7,0-0.9,0c-1.7,0-3-0.1-4-0.2s-1.9-0.4-2.7-0.8
			c-1.1-0.5-1.9-1.2-2.5-2.1s-0.8-1.8-0.8-2.9c0-1.1,0.3-2.1,0.9-3s1.5-1.6,2.8-2.1c0.6-0.3,1.4-0.5,2.2-0.6s1.6-0.2,2.3-0.3l0-5.3
			h3.6c0,0.2,0,1.2,0,3s0,3.8,0,6c0,1.9,0,3.6,0,4.9S1112.5,73.9,1112.5,74.8z M1109.1,67.4c0-0.3,0-0.6,0-0.9s0-0.7,0-1
			c-0.5,0-1.1,0-1.5,0.1s-0.9,0.2-1.3,0.4c-0.6,0.3-1,0.7-1.3,1.2s-0.5,1.1-0.5,1.8c0,0.6,0.1,1.1,0.4,1.6s0.7,0.8,1.2,1.1
			c0.4,0.2,0.9,0.4,1.3,0.5s1,0.2,1.5,0.2c0,0,0.1,0,0.1,0s0.1,0,0.1,0c0-0.1,0-0.5,0-1.4S1109.1,69,1109.1,67.4z"/>
		<path fill="#707070" d="M1119.6,60.9h-3.7v-2.8h3.7V60.9z M1119.6,74.7h-3.6c0-0.4,0-1.2,0-2.4s0-2.4,0-3.4c0-0.9,0-1.8,0-2.8
			s0-2.1,0-3.3h3.6c0,1.1,0,2.1,0,3s0,1.9,0,3c0,1.8,0,3.1,0,4.1S1119.6,74.3,1119.6,74.7z"/>
		<path fill="#707070" d="M1131.4,71.1c0,0.6-0.2,1.2-0.5,1.7s-0.8,0.9-1.4,1.2c-0.6,0.3-1.3,0.5-2.1,0.7s-1.7,0.2-2.5,0.2
			c-0.6,0-1.1,0-1.5,0s-0.8,0-0.9,0l-0.3-2.6c0.2,0,0.5,0,0.9,0s0.9,0,1.4,0c0.3,0,0.6,0,0.9,0s0.6-0.1,0.9-0.2
			c0.4-0.1,0.7-0.3,0.8-0.4s0.2-0.4,0.2-0.6c0-0.2-0.1-0.4-0.2-0.6s-0.4-0.3-0.7-0.5c-0.3-0.2-0.6-0.3-1-0.5s-0.8-0.4-1.1-0.6
			c-0.5-0.3-0.9-0.7-1.2-1.2s-0.4-0.9-0.4-1.5c0-0.6,0.2-1.1,0.5-1.6s0.8-0.9,1.5-1.2c0.6-0.3,1.2-0.5,2-0.6s1.5-0.2,2.2-0.2
			c0.6,0,1,0,1.4,0s0.6,0,0.8,0l0.3,2.6c-0.1,0-0.3,0-0.7,0s-0.7,0-1.2,0c-0.3,0-0.7,0-0.9,0.1s-0.6,0.1-0.8,0.2
			c-0.3,0.1-0.5,0.2-0.7,0.4s-0.2,0.3-0.2,0.5c0,0.2,0.1,0.4,0.3,0.6s0.4,0.3,0.7,0.5c0.3,0.2,0.7,0.3,1.1,0.5s0.8,0.4,1,0.5
			c0.5,0.3,0.9,0.7,1.2,1.1S1131.4,70.5,1131.4,71.1z"/>
		<path fill="#707070" d="M1142,72.2l-0.3,2.6c-0.1,0-0.3,0-0.6,0s-0.6,0-1,0c-1.9,0-3.3-0.4-4.3-1.1s-1.4-1.8-1.4-3.2
			c0-0.9,0-1.8,0-2.5s0-1.7,0-2.7h-1.9v-2.6h2v-3.1h3.5v3.1h4v2.6h-4c0,0.2,0,0.5,0,1s0,0.9,0,1.3c0,0.3,0,0.6,0,0.9s0,0.8,0,1.2
			c0,0.9,0.2,1.5,0.7,1.9s1.4,0.6,2.6,0.6c0.1,0,0.3,0,0.4,0S1141.9,72.2,1142,72.2z"/>
	</g>
</g>
<text transform="matrix(1 0 0 1 1194.7852 601.7686)" fill="#7C7C7C" font-family="'ArialMT'" font-size="24px">page1.html</text>
<text transform="matrix(1 0 0 1 1194.7852 640.7686)" fill="#7C7C7C" font-family="'ArialMT'" font-size="24px">page2.html</text>
<polygon fill="#9ABCE5" points="984.9,588.7 994.9,595.7 984.9,602.7 "/>
<polygon fill="#9ABCE5" points="1154.2,588.7 1164.2,595.7 1154.2,602.7 "/>
<polygon fill="#E86464" points="984.9,456.7 994.9,463.7 984.9,470.7 "/>
<g>
	<rect x="1009.9" y="496.7" fill="#FFFFFF" width="116" height="57"/>
	<g>
		<g>
			<path fill="#282828" d="M1024.2,522h1.4l0.2,2.8h0c1-1.9,2.6-3,4.4-3c0.7,0,1.4,0.1,2,0.5l-0.4,1.7c-0.7-0.3-1.1-0.4-1.8-0.4
				c-1.5,0-2.9,0.9-4.1,3.3v6.8h-1.7V522z"/>
			<path fill="#282828" d="M1034.9,527.8c0-3.8,2.4-6.1,5.1-6.1c2.9,0,4.5,2.2,4.5,5.5c0,0.5,0,0.9-0.1,1.2h-8.4v-1.5h7.4l-0.4,0.6
				c0-2.8-1.2-4.1-3-4.1c-1.8,0-3.4,1.6-3.4,4.5c0,3,1.7,4.6,3.9,4.6c1.2,0,2.1-0.4,3-1.1l0.6,1.3c-1,0.8-2.3,1.4-3.8,1.4
				C1037.3,534,1034.9,531.7,1034.9,527.8z"/>
			<path fill="#282828" d="M1047.3,532.2l0.8-1.3c1.1,1,2.5,1.6,4.3,1.6c1.7,0,2.5-0.8,2.5-1.8c0-0.9-0.4-1.5-3.1-2.2
				c-2.6-0.6-3.9-1.7-3.9-3.4c0-1.9,1.4-3.3,4.1-3.3c1.5,0,3,0.7,4,1.5l-0.8,1.3c-0.9-0.7-2.1-1.2-3.3-1.2c-1.7,0-2.3,0.8-2.3,1.7
				c0,1,0.9,1.4,2.9,1.9c3.3,0.8,4.1,1.8,4.1,3.6c0,1.9-1.6,3.5-4.4,3.5C1050.2,534,1048.5,533.1,1047.3,532.2z"/>
			<path fill="#282828" d="M1059.7,529.3V522h1.7v7c0,2.2,0.7,3.2,2.3,3.2c1.1,0,2-0.6,3.1-2.1V522h1.7v11.7h-1.4l-0.1-2h-0.1
				c-1,1.4-2.2,2.3-3.7,2.3C1060.7,534,1059.7,532.4,1059.7,529.3z"/>
			<path fill="#282828" d="M1075.4,529.8v-11.6h-3.5v-1.6h5.2v13.3c0,1.7,0.8,2.4,2,2.4c0.6,0,1.2-0.2,1.9-0.5l0.4,1.5
				c-0.9,0.5-1.6,0.7-2.7,0.7C1076.6,534,1075.4,532.5,1075.4,529.8z"/>
			<path fill="#282828" d="M1086.9,529.2v-5.5h-2.8v-1.5l2.9-0.1l0.2-3.7h1.4v3.7h4.9v1.6h-4.9v5.5c0,2.1,0.6,3.2,2.5,3.2
				c0.9,0,1.7-0.2,2.4-0.5l0.4,1.5c-0.9,0.4-1.9,0.7-3.1,0.7C1087.8,534,1086.9,532,1086.9,529.2z"/>
			<path fill="#282828" d="M1096.4,532.2l0.8-1.3c1.1,1,2.5,1.6,4.3,1.6c1.7,0,2.5-0.8,2.5-1.8c0-0.9-0.4-1.5-3.1-2.2
				c-2.6-0.6-3.9-1.7-3.9-3.4c0-1.9,1.4-3.3,4.1-3.3c1.5,0,3,0.7,4,1.5l-0.8,1.3c-0.9-0.7-2.1-1.2-3.3-1.2c-1.7,0-2.3,0.8-2.3,1.7
				c0,1,0.9,1.4,2.9,1.9c3.3,0.8,4.1,1.8,4.1,3.6c0,1.9-1.6,3.5-4.4,3.5C1099.3,534,1097.6,533.1,1096.4,532.2z"/>
			<path fill="#282828" d="M1121.7,530.6l6.1-4.8v-0.1l-6.1-4.8v-1.9l7.6,6v1.5l-7.6,6V530.6z"/>
			<path fill="#282828" d="M1134,530.6l6.1-4.8v-0.1l-6.1-4.8v-1.9l7.6,6v1.5l-7.6,6V530.6z"/>
		</g>
	</g>
</g>
<rect x="556.9" y="496.7" fill="#FFFFFF" width="96.8" height="57"/>
<g>
	<g>
		<path fill="#282828" d="M575.4,532.2l0.8-1.3c1.1,1,2.5,1.6,4.3,1.6c1.7,0,2.5-0.8,2.5-1.8c0-0.9-0.4-1.5-3.1-2.2
			c-2.6-0.6-3.9-1.7-3.9-3.4c0-1.9,1.4-3.3,4.1-3.3c1.5,0,3,0.7,4,1.5l-0.8,1.3c-0.9-0.7-2.1-1.2-3.3-1.2c-1.7,0-2.3,0.8-2.3,1.7
			c0,1,0.9,1.4,2.9,1.9c3.3,0.8,4.1,1.8,4.1,3.6c0,1.9-1.6,3.5-4.4,3.5C578.3,534,576.6,533.1,575.4,532.2z"/>
		<path fill="#282828" d="M587.4,527.9c0-3.9,2.3-6.1,4.9-6.1s4.9,2.2,4.9,6.1c0,3.9-2.3,6.1-4.9,6.1S587.4,531.8,587.4,527.9z
			 M595.5,527.9c0-2.7-1.3-4.5-3.2-4.5s-3.2,1.8-3.2,4.5c0,2.7,1.3,4.4,3.2,4.4S595.5,530.6,595.5,527.9z"/>
		<path fill="#282828" d="M600.1,529.3V522h1.7v7c0,2.2,0.7,3.2,2.3,3.2c1.1,0,2-0.6,3.1-2.1V522h1.7v11.7h-1.4l-0.1-2h-0.1
			c-1,1.4-2.2,2.3-3.7,2.3C601.1,534,600.1,532.4,600.1,529.3z"/>
		<path fill="#282828" d="M613.7,522h1.4l0.2,2.8h0c1-1.9,2.6-3,4.4-3c0.7,0,1.4,0.1,2,0.5l-0.4,1.7c-0.7-0.3-1.1-0.4-1.8-0.4
			c-1.5,0-2.9,0.9-4.1,3.3v6.8h-1.7V522z"/>
		<path fill="#282828" d="M624.7,527.9c0-3.9,2.5-6.1,5.5-6.1c1.6,0,2.8,0.8,3.6,1.7l-0.8,1.3c-0.8-0.8-1.7-1.3-2.7-1.3
			c-2.3,0-3.9,1.8-3.9,4.5c0,2.7,1.6,4.4,3.8,4.4c1.2,0,2.3-0.6,3.1-1.5l0.8,1.3c-1.1,1.2-2.5,1.8-3.9,1.8
			C627,534,624.7,531.8,624.7,527.9z"/>
		<path fill="#282828" d="M636.7,527.8c0-3.8,2.4-6.1,5.1-6.1c2.9,0,4.5,2.2,4.5,5.5c0,0.5,0,0.9-0.1,1.2h-8.4v-1.5h7.4l-0.4,0.6
			c0-2.8-1.2-4.1-3-4.1c-1.8,0-3.4,1.6-3.4,4.5c0,3,1.7,4.6,3.9,4.6c1.2,0,2.1-0.4,3-1.1l0.6,1.3c-1,0.8-2.3,1.4-3.8,1.4
			C639.1,534,636.7,531.7,636.7,527.8z"/>
		<path fill="#282828" d="M662.1,530.6l6.1-4.8v-0.1l-6.1-4.8v-1.9l7.6,6v1.5l-7.6,6V530.6z"/>
		<path fill="#282828" d="M674.4,530.6l6.1-4.8v-0.1l-6.1-4.8v-1.9l7.6,6v1.5l-7.6,6V530.6z"/>
	</g>
</g>
</svg>
