<?xml version="1.0" encoding="utf-8"?>
<!-- Generator: Adobe Illustrator 22.0.1, SVG Export Plug-In . SVG Version: 6.00 Build 0)  -->
<svg version="1.1" id="Layer_1" xmlns="http://www.w3.org/2000/svg" xmlns:xlink="http://www.w3.org/1999/xlink" x="0px" y="0px"
	 viewBox="0 0 1802.5 856" style="enable-background:new 0 0 1802.5 856;" xml:space="preserve">
<style type="text/css">
	.st0{fill:none;stroke:#E5E5E5;stroke-miterlimit:10;}
	.st1{fill:#FFFFFF;}
	.st2{fill:#F4F4F4;}
	.st3{fill:#7C7C7C;}
	.st4{font-family:'ComicSansMS';}
	.st5{font-size:24px;}
	.st6{fill:#3691D6;}
	.st7{fill:#007FB7;}
	.st8{fill:#E2E2E2;}
	.st9{fill:#B5B5B5;}
	.st10{fill:#006993;}
	.st11{fill:#BFBFBF;}
	.st12{letter-spacing:4;}
	.st13{fill:#E82A60;}
	.st14{fill:#23B2F9;}
	.st15{fill:#EFEFEF;}
	.st16{fill:#CE0D4E;}
	.st17{fill:#65D6FF;}
	.st18{fill:none;stroke:#007FB7;stroke-width:5;stroke-miterlimit:10;}
</style>
<line class="st0" x1="1142.5" y1="139.5" x2="1142.5" y2="761.5"/>
<line class="st0" x1="704.5" y1="139.5" x2="704.5" y2="761.5"/>
<rect x="635" y="407" class="st1" width="138" height="57"/>
<path class="st2" d="M1026.8,501H811.2c-5.1,0-9.2-4.1-9.2-9.2v-51.5c0-5.1,4.1-9.2,9.2-9.2h215.5c5.1,0,9.2,4.1,9.2,9.2v51.5
	C1036,496.9,1031.9,501,1026.8,501z"/>
<g>
	<text transform="matrix(1 0 0 1 119 372)" class="st3 st4 st5">templates</text>
</g>
<g>
	<text transform="matrix(1 0 0 1 119 208)" class="st3 st4 st5">assets</text>
	<path class="st6" d="M175.7,137.3c-0.6-0.6-1.3-0.9-2-0.9h-28.2l-6.3-6.3c-0.2-0.2-0.6-0.5-0.9-0.6c-0.4-0.1-0.7-0.2-1.1-0.2h-15.1
		c-0.7,0-1.5,0.3-2,0.9c-0.5,0.6-0.9,1.3-0.9,2v16.7h57.3v-9.6C176.6,138.6,176.3,137.9,175.7,137.3z"/>
	<path class="st7" d="M173.7,173.6h-51.6c-1.6,0-2.9-1.3-2.9-2.9v-26.6h57.3v26.6C176.6,172.3,175.3,173.6,173.7,173.6z"/>
	<path class="st6" d="M175.7,296.3c-0.6-0.6-1.3-0.9-2-0.9h-28.2l-6.3-6.3c-0.2-0.2-0.6-0.5-0.9-0.6c-0.4-0.1-0.7-0.2-1.1-0.2h-15.1
		c-0.7,0-1.5,0.3-2,0.9c-0.5,0.6-0.9,1.3-0.9,2v16.7h57.3v-9.6C176.6,297.6,176.3,296.9,175.7,296.3z"/>
	<path class="st7" d="M173.7,332.6h-51.6c-1.6,0-2.9-1.3-2.9-2.9v-26.6h57.3v26.6C176.6,331.3,175.3,332.6,173.7,332.6z"/>
	<g>
		<text transform="matrix(1 0 0 1 119 553)" class="st3 st4 st5">views</text>
	</g>
	<path class="st6" d="M175.7,477.3c-0.6-0.6-1.3-0.9-2-0.9h-28.2l-6.3-6.3c-0.2-0.2-0.6-0.5-0.9-0.6c-0.4-0.1-0.7-0.2-1.1-0.2h-15.1
		c-0.7,0-1.5,0.3-2,0.9c-0.5,0.6-0.9,1.3-0.9,2v16.7h57.3v-9.6C176.6,478.6,176.3,477.9,175.7,477.3z"/>
	<path class="st7" d="M173.7,513.6h-51.6c-1.6,0-2.9-1.3-2.9-2.9v-26.6h57.3v26.6C176.6,512.3,175.3,513.6,173.7,513.6z"/>
	<g>
		<text transform="matrix(1 0 0 1 119 733)" class="st3 st4 st5">others</text>
	</g>
	<path class="st8" d="M175.7,657.3c-0.6-0.6-1.3-0.9-2-0.9h-28.2l-6.3-6.3c-0.2-0.2-0.6-0.5-0.9-0.6c-0.4-0.1-0.7-0.2-1.1-0.2h-15.1
		c-0.7,0-1.5,0.3-2,0.9c-0.5,0.6-0.9,1.3-0.9,2v16.7h57.3v-9.6C176.6,658.6,176.3,657.9,175.7,657.3z"/>
	<path class="st9" d="M173.7,693.6h-51.6c-1.6,0-2.9-1.3-2.9-2.9v-26.6h57.3v26.6C176.6,692.3,175.3,693.6,173.7,693.6z"/>
</g>
<text transform="matrix(1 0 0 1 221.6089 160.6001)" class="st10 st4 st5">&gt;</text>
<g>
	<text transform="matrix(1 0 0 1 302.394 160.104)" class="st3 st4 st5">fonts</text>
</g>
<g>
	<text transform="matrix(1 0 0 1 302.394 196.104)" class="st3 st4 st5">images</text>
</g>
<g>
	<text transform="matrix(1 0 0 1 302.394 235.104)" class="st3 st4 st5">css</text>
</g>
<g>
	<text transform="matrix(1 0 0 1 489.394 236.104)" class="st3 st4 st5">share.css</text>
</g>
<text transform="matrix(1 0 0 1 221.6089 500.6001)" class="st10 st4 st5">&gt;</text>
<g>
	<text transform="matrix(1 0 0 1 1253 216)" class="st3 st4 st5">assets</text>
</g>
<path class="st6" d="M1309.7,140.3c-0.6-0.6-1.3-0.9-2-0.9h-28.2l-6.3-6.3c-0.2-0.2-0.6-0.5-0.9-0.6c-0.4-0.1-0.7-0.2-1.1-0.2h-15.1
	c-0.7,0-1.5,0.3-2,0.9s-0.9,1.3-0.9,2v16.7h57.3v-9.6C1310.6,141.6,1310.3,140.9,1309.7,140.3z"/>
<path class="st7" d="M1307.7,176.6h-51.6c-1.6,0-2.9-1.3-2.9-2.9v-26.6h57.3v26.6C1310.6,175.3,1309.3,176.6,1307.7,176.6z"/>
<text transform="matrix(1 0 0 1 1355.6089 163.6001)" class="st10 st4 st5">&gt;</text>
<g>
	<text transform="matrix(1 0 0 1 221.6089 678.6001)" class="st11 st4 st5">&gt;</text>
</g>
<text transform="matrix(1 0 0 1 437.6089 503.3207)" class="st10 st4 st5">&gt;</text>
<text transform="matrix(1 0 0 1 437.6089 236.3207)" class="st10 st4 st5">&gt;</text>
<g>
	<text transform="matrix(1 0 0 1 437.6089 546.8207)" class="st11 st4 st5">&gt;</text>
</g>
<g>
	<text transform="matrix(1 0 0 1 437.6089 586.8207)" class="st11 st4 st5">&gt;</text>
</g>
<g>
	<g>
		<text transform="matrix(1 0 0 1 304.3161 500.104)" class="st3 st4 st5">page1</text>
	</g>
	<g>
		<text transform="matrix(1 0 0 1 302.3942 543.7706)" class="st11 st4 st5">page2</text>
	</g>
	<g>
		<text transform="matrix(1 0 0 1 304.0536 585.104)" class="st11 st4 st5 st12">...</text>
	</g>
	<g>
		<text transform="matrix(1 0 0 1 329.0536 719.104)" class="st11 st4 st5 st12">...</text>
	</g>
	<g>
		<text transform="matrix(1 0 0 1 1253.0537 672.104)" class="st11 st4 st5 st12">...</text>
	</g>
	<g>
		<text transform="matrix(1 0 0 1 1448.0537 437.104)" class="st11 st4 st5 st12">...</text>
	</g>
	<g>
		<text transform="matrix(1 0 0 1 129.5536 805.604)" class="st11 st4 st5 st12">...</text>
	</g>
</g>
<text transform="matrix(1 0 0 1 533.5977 518.3036)" class="st13 st4 st5">main.js</text>
<g>
	<text transform="matrix(1 0 0 1 533.5977 559.9703)" class="st14 st4 st5">main.hbs</text>
</g>
<g>
	<text transform="matrix(1 0 0 1 533.5977 601.637)" class="st3 st4 st5">private.css</text>
</g>
<rect x="276" y="492" class="st11" width="13" height="5"/>
<rect x="276" y="151" class="st11" width="13" height="5"/>
<rect x="276" y="186" class="st11" width="13" height="5"/>
<rect x="276" y="226" class="st11" width="13" height="5"/>
<g>
	<text transform="matrix(1 0 0 1 1443.394 163.104)" class="st3 st4 st5">fonts</text>
</g>
<g>
	<text transform="matrix(1 0 0 1 1443.394 199.104)" class="st3 st4 st5">images</text>
</g>
<g>
	<text transform="matrix(1 0 0 1 1443.394 238.104)" class="st3 st4 st5">css</text>
</g>
<g>
	<text transform="matrix(1 0 0 1 1443.394 362.1038)" class="st3 st4 st5">page1.hash.js</text>
</g>
<g>
	<text transform="matrix(1 0 0 1 1443.394 404.104)" class="st3 st4 st5">page2.hash.js</text>
</g>
<g>
	<text transform="matrix(1 0 0 1 1443.394 278.104)" class="st3 st4 st5">vendor.hash.js</text>
</g>
<g>
	<text transform="matrix(1 0 0 1 1443.394 320.1042)" class="st3 st4 st5">manifest.hash.js</text>
</g>
<rect x="1417" y="154" class="st11" width="13" height="5"/>
<rect x="1417" y="189" class="st11" width="13" height="5"/>
<rect x="1417" y="229" class="st11" width="13" height="5"/>
<text transform="matrix(1 0 0 1 221.6089 319.6001)" class="st10 st4 st5">&gt;</text>
<g>
	<text transform="matrix(1 0 0 1 328.394 332.104)" class="st3 st4 st5">meta.hbs</text>
</g>
<g>
	<text transform="matrix(1 0 0 1 328.394 368.104)" class="st3 st4 st5">section.hbs</text>
</g>
<g>
	<text transform="matrix(1 0 0 1 328.394 407.104)" class="st3 st4 st5">section.css</text>
</g>
<rect x="276" y="310" class="st11" width="13" height="5"/>
<rect x="276" y="538" class="st11" width="13" height="5"/>
<rect x="276" y="668" class="st11" width="13" height="5"/>
<polygon class="st15" points="476,505.7 489,505.4 489,643 "/>
<polygon class="st15" points="1417,266.7 1430,266.4 1430,404 "/>
<polygon class="st15" points="276,322.7 289,322.4 289,436 "/>
<polygon class="st15" points="276,679.7 289,679.4 289,744 "/>
<rect x="476" y="496" class="st11" width="13" height="5"/>
<g>
	<text transform="matrix(1 0 0 1 329 438)" class="st11 st4 st5 st12">...</text>
</g>
<circle class="st13" cx="473" cy="229" r="6"/>
<g>
	<text transform="matrix(1 0 0 1 328.394 693.104)" class="st11 st4 st5">share.js</text>
</g>
<circle class="st13" cx="310" cy="687" r="6"/>
<circle class="st13" cx="515" cy="596" r="6"/>
<circle class="st13" cx="922" cy="466" r="6"/>
<circle class="st13" cx="948" cy="460" r="6"/>
<circle class="st13" cx="973" cy="480" r="6"/>
<circle class="st13" cx="1000" cy="472" r="6"/>
<g>
	<text transform="matrix(1 0 0 1 533.5977 643.3036)" class="st3 st4 st5">private.js</text>
</g>
<circle class="st13" cx="515" cy="637" r="6"/>
<circle class="st13" cx="309" cy="402" r="6"/>
<circle class="st14" cx="309" cy="362" r="6"/>
<circle class="st14" cx="309" cy="326" r="6"/>
<polygon class="st13" points="510,505 520,512 510,519 "/>
<polygon class="st13" points="1187,167 1197,174 1187,181 "/>
<polygon class="st14" points="510,548 520,555 510,562 "/>
<g>
	<text transform="matrix(1 0 0 1 876.085 288.585)" class="st3 st4 st5">compiler</text>
</g>
<path class="st13" d="M925.1,232.2c2-3.8,0.5-8.4-3.3-10.4s-8.4-0.5-10.4,3.3c-2,3.8-0.5,8.4,3.3,10.4
	C918.5,237.5,923.2,236,925.1,232.2z"/>
<path class="st7" d="M898.5,240.6c2-3.8,0.5-8.4-3.3-10.4c-3.8-2-8.4-0.5-10.4,3.3c-2,3.8-0.5,8.4,3.3,10.4
	C891.9,245.8,896.6,244.4,898.5,240.6z"/>
<path class="st16" d="M887.8,254.5c1.6-3,0.4-6.8-2.6-8.3c-3-1.6-6.8-0.4-8.3,2.6c0,0,0,0,0,0c-1.6,3-0.4,6.8,2.6,8.3
	C882.5,258.7,886.2,257.5,887.8,254.5C887.8,254.5,887.8,254.5,887.8,254.5z"/>
<path class="st16" d="M939.8,238.2c1.6-3,0.4-6.8-2.6-8.3c-3-1.6-6.8-0.4-8.3,2.6c0,0,0,0,0,0c-1.6,3-0.4,6.8,2.6,8.3
	C934.5,242.4,938.3,241.2,939.8,238.2C939.8,238.2,939.8,238.2,939.8,238.2z"/>
<path class="st13" d="M914.6,247.1c1.8-3.4,0.5-7.6-2.9-9.4c-3.4-1.8-7.6-0.5-9.4,2.9c0,0,0,0,0,0c-1.8,3.4-0.5,7.6,2.9,9.4
	C908.7,251.8,912.8,250.5,914.6,247.1C914.6,247.1,914.6,247.1,914.6,247.1z"/>
<path class="st7" d="M908.2,223.9c2.1-4,0.5-8.9-3.4-11c-4-2.1-8.9-0.5-11,3.4c0,0,0,0,0,0c-2.1,4-0.5,8.9,3.4,11
	C901.2,229.4,906.1,227.9,908.2,223.9C908.2,223.9,908.2,223.9,908.2,223.9z"/>
<path class="st17" d="M953.1,244.5c1.4-2.8,0.4-6.2-2.4-7.6c-2.8-1.4-6.2-0.4-7.6,2.4c-1.4,2.8-0.4,6.2,2.4,7.6
	C948.3,248.3,951.7,247.3,953.1,244.5z"/>
<path class="st17" d="M943.4,255.5c1.3-2.6,0.3-5.7-2.2-7.1c-2.6-1.3-5.7-0.3-7.1,2.2c-1.3,2.6-0.3,5.7,2.2,7.1
	C938.9,259.1,942,258.1,943.4,255.5z"/>
<path class="st17" d="M918.3,261.6c1.4-2.8,0.4-6.2-2.4-7.6c-2.8-1.4-6.2-0.4-7.6,2.4c0,0,0,0,0,0c-1.4,2.8-0.4,6.2,2.4,7.6
	C913.4,265.4,916.8,264.3,918.3,261.6z"/>
<path class="st7" d="M930.2,250.8c1.5-2.9,0.4-6.6-2.6-8.1s-6.6-0.4-8.1,2.6c-1.5,2.9-0.4,6.6,2.6,8.1
	C925,254.9,928.6,253.7,930.2,250.8z"/>
<g>
	<text transform="matrix(1 0 0 1 802.0703 420.083)" class="st13 st4 st5">main.js</text>
</g>
<g>
	<text transform="matrix(1 0 0 1 823.0654 473.5771)" class="st3 st4 st5">import</text>
</g>
<path class="st2" d="M1026.8,635H811.2c-5.1,0-9.2-4.1-9.2-9.2v-51.5c0-5.1,4.1-9.2,9.2-9.2h215.5c5.1,0,9.2,4.1,9.2,9.2v51.5
	C1036,630.9,1031.9,635,1026.8,635z"/>
<circle class="st14" cx="922" cy="600" r="6"/>
<circle class="st14" cx="942" cy="614" r="6"/>
<circle class="st14" cx="973" cy="600" r="6"/>
<circle class="st14" cx="1000" cy="606" r="6"/>
<g>
	<text transform="matrix(1 0 0 1 802.0703 554.083)" class="st14 st4 st5">main.hbs</text>
</g>
<g>
	<text transform="matrix(1 0 0 1 823.0654 607.5771)" class="st3 st4 st5">insert</text>
</g>
<g>
	<text transform="matrix(1 0 0 1 801.585 355.584)" class="st3 st4 st5">page1,  page2,  ...</text>
</g>
<path class="st3" d="M680.5,442"/>
<g>
	<g>
		<path class="st3" d="M1086.6,148.1c1.9,0,1.9-3,0-3C1084.6,145.1,1084.6,148.1,1086.6,148.1L1086.6,148.1z"/>
	</g>
</g>
<line class="st18" x1="120" y1="76" x2="177" y2="76"/>
<text transform="matrix(1 0 0 1 119.6025 63.5981)" class="st4 st5">&gt; src</text>
<line class="st18" x1="1186" y1="76.5" x2="1248" y2="76.5"/>
<text transform="matrix(1 0 0 1 1186.6025 64.0981)" class="st4 st5">&gt; dist</text>
<g>
	<text transform="matrix(1 0 0 1 1252.5625 601.0703)" class="st3 st4 st5">page1.html</text>
</g>
<g>
	<text transform="matrix(1 0 0 1 1252.5625 640.0703)" class="st3 st4 st5">page2.html</text>
</g>
<text transform="matrix(1 0 0 1 661 442)" class="st4 st5">source &gt;&gt;</text>
<polygon class="st14" points="1072,593 1082,600 1072,607 "/>
<polygon class="st14" points="1183,593 1193,600 1183,607 "/>
<polygon class="st13" points="1072,461 1082,468 1072,475 "/>
<g>
	<rect x="1097" y="402" class="st1" width="116" height="57"/>
	<text transform="matrix(0.8529 0 0 1 1108.3232 442)" class="st4 st5">results &gt;&gt;</text>
</g>
</svg>
